<svg width="200" height="200" viewBox="0 0 200 200" fill="none" xmlns="http://www.w3.org/2000/svg">
<g clip-path="url(#clip0_9_2)">
<g opacity="0.6">
<path d="M96.128 0V14.188C75.412 15.388 57.35 22.848 42.14 36.522C38.786 33.178 35.534 29.938 31.904 26.32C36.224 23.066 40.446 19.532 45.008 16.508C59.43 6.944 75.308 1.506 92.622 0.382C93.202 0.346 93.766 0.132 94.338 0L96.128 0Z" fill="#999999"/>
<path d="M47.358 41.676C61.128 29.39 77.332 22.714 96.074 21.576V90.37C79.916 74.22 63.762 58.072 47.358 41.676ZM81.382 41.702C81.426 38.476 78.9 35.848 75.686 35.774C72.368 35.7 69.69 38.32 69.7 41.632C69.71 44.852 72.282 47.43 75.504 47.452C78.72 47.47 81.336 44.91 81.382 41.702ZM74.986 55.466C73.114 55.408 71.576 56.748 71.506 58.496C71.434 60.254 72.87 61.698 74.75 61.758C76.62 61.82 78.164 60.476 78.23 58.728C78.296 56.972 76.858 55.524 74.986 55.466ZM83.134 54.308C83.104 55.936 84.432 57.292 86.056 57.288C87.68 57.284 89.058 55.928 88.968 54.306C88.872 52.582 87.884 51.59 86.168 51.456C84.542 51.332 83.164 52.68 83.134 54.308Z" fill="#999999"/>
<path d="M178.5 103.908C177.318 122.632 170.632 138.834 158.446 152.562C142.172 136.268 125.958 120.026 109.86 103.908H178.5ZM163.958 122.98C163.92 119.76 161.32 117.16 158.126 117.158C154.83 117.156 152.192 119.852 152.254 123.168C152.314 126.356 155.01 128.942 158.196 128.868C161.43 128.792 163.998 126.17 163.958 122.98ZM148.118 112.042C148.096 110.284 146.72 108.976 144.942 109.034C143.126 109.086 141.618 110.706 141.65 112.572C141.678 114.334 143.054 115.644 144.822 115.584C146.636 115.52 148.14 113.904 148.118 112.042ZM141.554 120.872C139.96 120.896 138.608 122.318 138.662 123.914C138.714 125.55 140.072 126.818 141.744 126.704C143.496 126.578 144.424 125.548 144.504 123.834C144.578 122.21 143.16 120.85 141.554 120.872Z" fill="#999999"/>
<path d="M163.404 157.918C177.128 142.666 184.624 124.726 185.824 103.968H199.976C198.714 128.53 189.92 149.848 173.386 168.026C170.068 164.668 166.832 161.39 163.404 157.918Z" fill="#999999"/>
<path d="M103.824 178.528V109.708C120.004 125.88 136.21 142.084 152.558 158.426C138.91 170.618 122.682 177.338 103.824 178.528ZM126.342 151.692C123.17 151.712 120.558 154.336 120.528 157.548C120.496 160.752 123.088 163.384 126.306 163.424C129.598 163.464 132.318 160.752 132.274 157.486C132.236 154.376 129.464 151.67 126.342 151.692ZM127.334 140.708C127.344 138.996 125.766 137.516 123.95 137.544C122.122 137.574 120.566 139.052 120.576 140.748C120.594 142.478 121.942 143.858 123.692 143.918C125.558 143.98 127.324 142.426 127.334 140.708ZM116.636 147.234C116.616 145.382 115.25 144.01 113.67 144.024C112.044 144.036 110.73 145.402 110.782 147.036C110.826 148.638 112.24 149.984 113.86 149.872C115.614 149.752 116.48 148.704 116.636 147.234Z" fill="#999999"/>
<path d="M103.79 199.792V185.878C124.528 184.706 142.618 177.18 157.954 163.394C161.306 166.752 164.568 170.012 167.826 173.272C156.55 186.918 121.768 201.39 103.79 199.792Z" fill="#999999"/>
<path d="M158.524 47.644C170.65 61.186 177.268 77.404 178.484 96.116H109.932C125.992 80.094 142.204 63.922 158.524 47.644ZM156.182 82.418C159.33 82.364 161.994 79.594 161.898 76.474C161.8 73.262 159.124 70.646 155.984 70.688C152.788 70.732 150.18 73.372 150.186 76.556C150.192 79.892 152.834 82.476 156.182 82.418ZM135.96 78.556C135.902 80.358 137.304 82.01 138.976 82.112C140.776 82.224 142.24 80.83 142.3 78.946C142.362 77.128 140.972 75.478 139.3 75.376C137.546 75.268 136.018 76.726 135.96 78.556ZM145.144 86.174C143.502 86.194 142.186 87.562 142.262 89.174C142.34 90.798 143.734 92.116 145.364 91.972C147.08 91.818 148.036 90.802 148.092 89.07C148.148 87.384 146.856 86.154 145.144 86.174Z" fill="#999999"/>
<path d="M200 96.222H185.846C184.704 75.46 177.128 57.394 163.422 42.1C166.75 38.738 169.942 35.516 173.376 32.048C189.946 50.192 198.662 71.494 200 96.222Z" fill="#999999"/>
<path d="M21.53 96.092C22.364 75.97 31.824 57.354 41.768 47.584C57.93 63.754 74.09 79.924 90.246 96.092H21.53ZM48.812 74.212C48.776 70.964 46.198 68.424 42.948 68.43C39.754 68.436 37.092 71.086 37.098 74.252C37.106 77.592 39.738 80.182 43.094 80.146C46.276 80.114 48.848 77.442 48.812 74.212ZM54.114 84.03C52.286 84.044 50.714 85.61 50.674 87.458C50.636 89.174 52.046 90.564 53.8 90.544C55.61 90.522 57.228 88.918 57.26 87.112C57.292 85.42 55.856 84.016 54.114 84.03ZM59.24 73.69C57.594 73.726 56.292 75.112 56.39 76.73C56.484 78.32 57.952 79.68 59.53 79.518C61.258 79.34 62.184 78.266 62.244 76.562C62.306 74.914 60.92 73.654 59.24 73.69Z" fill="#999999"/>
<path d="M14.114 96.238H0C1.184 71.592 9.998 50.304 26.43 32.186C29.812 35.594 33.046 38.852 36.428 42.262C29.896 49.462 24.504 57.782 20.64 67.062C16.782 76.328 14.668 86 14.114 96.238Z" fill="#999999"/>
<path d="M21.474 103.894H90.22C74.07 120.054 57.876 136.264 41.564 152.588C29.338 138.894 22.642 122.692 21.474 103.894ZM47.438 123.236C47.526 120.078 44.898 117.284 41.776 117.218C38.598 117.152 35.82 119.742 35.72 122.862C35.614 126.104 38.124 128.848 41.278 128.952C44.624 129.062 47.346 126.54 47.438 123.236ZM61.722 124.286C61.67 122.352 60.288 120.946 58.502 121.008C56.71 121.07 55.35 122.562 55.396 124.424C55.442 126.32 56.868 127.77 58.62 127.704C60.418 127.628 61.772 126.136 61.722 124.286ZM57.62 113.114C57.646 111.478 56.336 110.114 54.716 110.09C53.124 110.068 51.712 111.45 51.774 113.068C51.84 114.808 52.812 115.796 54.55 115.924C56.206 116.042 57.596 114.73 57.62 113.114Z" fill="#999999"/>
<path d="M26.556 167.864C10.916 151.792 0.462 126.636 0.0419998 103.95H14.108C14.648 114.012 16.748 123.696 20.606 132.954C24.472 142.234 29.842 150.58 36.548 157.908C33.172 161.27 29.914 164.518 26.556 167.864Z" fill="#999999"/>
<path d="M47.36 158.39C63.716 142.05 79.88 125.904 96.07 109.732V178.498C77.394 177.344 61.208 170.688 47.36 158.39ZM75.968 161.632C79.22 161.58 81.756 159.01 81.752 155.78C81.75 152.414 79.152 149.878 75.758 149.912C72.59 149.952 70.014 152.646 70.072 155.87C70.128 159.094 72.786 161.688 75.968 161.632ZM91.624 144.32C91.644 142.562 90.014 140.894 88.21 140.832C86.512 140.774 85.08 142.158 85.044 143.9C85.008 145.694 86.592 147.322 88.428 147.374C90.116 147.424 91.604 146.002 91.624 144.32ZM80.28 139.3C80.316 137.706 78.93 136.284 77.302 136.39C75.596 136.498 74.572 137.432 74.474 139.198C74.384 140.83 75.698 142.238 77.298 142.262C78.876 142.296 80.244 140.938 80.28 139.3Z" fill="#999999"/>
<path d="M96.154 185.876V200.002C71.518 198.708 50.194 189.982 32.06 173.502C35.478 170.118 38.742 166.878 42.122 163.536C57.3 177.126 75.308 184.67 96.154 185.876Z" fill="#999999"/>
<path d="M103.428 91.412V22.338C122.386 23.48 138.49 30.42 152.572 42.912C136.178 59.092 119.922 75.134 103.428 91.412ZM132.916 44.456C132.886 41.24 130.296 38.678 127.068 38.67C123.804 38.662 121.128 41.418 121.206 44.698C121.284 47.84 124.012 50.434 127.194 50.388C130.368 50.34 132.946 47.666 132.916 44.456ZM115.262 52.634C115.232 50.766 113.672 49.168 111.876 49.16C110.17 49.154 108.798 50.57 108.806 52.32C108.818 54.16 110.406 55.796 112.186 55.802C113.872 55.808 115.29 54.346 115.262 52.634ZM124.274 60.018C124.29 58.418 122.928 57.054 121.282 57.122C119.544 57.196 118.57 58.188 118.43 59.9C118.302 61.524 119.65 62.912 121.266 62.942C122.872 62.972 124.256 61.626 124.274 60.018Z" fill="#999999"/>
<path d="M157.622 37.536C142.376 23.73 124.446 16.182 103.758 14.84V0.856018C128.348 2.16202 149.536 11.076 167.39 27.482C164.14 30.824 160.958 34.1 157.622 37.536Z" fill="#999999"/>
</g>
</g>
<defs>
<clipPath id="clip0_9_2">
<rect width="200" height="200" fill="white"/>
</clipPath>
</defs>
</svg>
